#!OML:ASF H:\ColoradoDance\Project 1\Capture day 1\Session 8\male.ASF
:FULLY-SPECIFIED
:DEGREES
29
upperback -4.152300 0.343635 0.688614
rfoot -29.271601 -21.966900
lradius 26.583401
lthumb 4.835730 53.877499
rradius 20.780100
lwrist -11.845500
rhand -30.460501 -3.750320
rhumerus -42.097099 -10.642600 -69.454697
lowerneck -6.100020 -3.957030 0.192199
lhand -21.557800 23.952700
ltibia 37.113201
head 3.223740 -2.619480 -0.321933
rwrist 14.264400
lfingers 7.125020
rtoes -15.794400
lowerback -0.972335 0.172156 1.040420
rfingers 7.125020
lclavicle -0.000000 0.000000
upperneck 6.736320 -5.292750 -0.130522
rfemur -13.795100 2.381220 21.294201
thorax -3.722600 0.183733 0.115870
rclavicle -0.000000 0.000000
rtibia 35.463200
lfoot -32.176899 2.963710
lhumerus -44.733601 13.853100 68.568703
rthumb -3.762180 -33.696899
root -19.593800 18.910000 11.073100 215.421997 79.672501 200.449997
ltoes 1.783980
lfemur -16.271700 3.929090 -22.665701
30
upperback -3.409700 -0.937998 0.745622
rfoot -11.050200 -13.824000
lradius 29.101400
lthumb 3.956400 55.909000
rradius 22.959900
lwrist -12.252900
rhand -38.685101 -11.010500
rhumerus -49.266201 -14.717100 -65.122498
lowerneck -3.632510 -6.127470 -1.834950
lhand -22.468500 25.966000
ltibia 29.056000
head 2.144320 -4.043840 1.261250
rwrist 10.656800
lfingers 7.125020
rtoes -25.155899
lowerback 1.192160 -0.736144 -0.741468
rfingers 7.125020
lclavicle -0.000000 -0.000000
upperneck 4.017630 -8.254890 3.811680
rfemur -27.486500 -12.312300 22.591400
thorax -4.153670 -0.410276 1.227220
rclavicle -0.000000 -0.000000
rtibia 63.245201
lfoot -27.604799 9.044280
lhumerus -40.248798 7.356030 76.990700
rthumb -11.700000 -40.663700
root -19.293301 18.982800 11.913300 199.509003 71.205704 186.817001
ltoes 2.909850
lfemur -9.776380 -6.669610 -20.400600
31
upperback -3.404450 -1.948400 -0.053108
rfoot -9.926570 -15.325400
lradius 31.840300
lthumb 9.534130 53.742901
rradius 25.761400
lwrist -9.000580
rhand -33.936901 -13.843000
rhumerus -49.601002 -10.696300 -76.441902
lowerneck -3.627150 -8.787390 -4.874120
lhand -16.690300 23.978600
ltibia 19.695900
head 2.996770 -5.792090 2.413160
rwrist 8.754930
lfingers 7.125020
rtoes -14.078100
lowerback 1.997480 -1.373310 -3.636820
rfingers 7.125020
lclavicle 0.000000 0.000000
upperneck 4.984550 -11.828200 6.322160
rfemur -51.337799 -25.662201 23.193600
thorax -4.518630 -0.823304 2.093140
rclavicle 0.000000 0.000000
rtibia 61.063301
lfoot -25.773800 6.127550
lhumerus -37.485500 1.166320 80.355598
rthumb -7.118620 -43.703201
root -17.697300 18.820499 12.520400 190.565002 62.907398 178.494003
ltoes -4.476320
lfemur -0.469699 -10.980300 -18.184401
32
upperback -4.516510 -1.558390 -0.840859
rfoot -13.805000 -37.498299
lradius 33.605701
lthumb 11.358600 54.550201
rradius 26.652300
lwrist -5.322050
rhand -24.639900 -7.456310
rhumerus -49.057999 -6.937610 -80.007401
lowerneck -4.595320 -9.809490 -6.491050
lhand -14.799000 24.877800
ltibia 0.000000
head 3.890160 -6.432830 1.962710
rwrist 9.115530
lfingers 7.125020
rtoes 18.818800
lowerback 1.211790 -1.071160 -4.809890
rfingers 7.125020
lclavicle 0.000000 0.000000
upperneck 7.905760 -13.098900 5.377200
rfemur -63.894001 -38.063702 37.913898
thorax -5.258240 -0.543028 1.903660
rclavicle 0.000000 0.000000
rtibia 45.362999
lfoot -16.299801 1.743530
lhumerus -42.796799 -0.898885 76.505699
rthumb 1.859320 -37.428001
root -14.350100 18.092400 13.141100 183.279007 62.501598 173.128006
ltoes -23.882999
lfemur 21.126400 -10.500900 -14.649400
33
upperback -3.428510 -0.433438 0.643477
rfoot -24.532700 -30.183901
lradius 25.710899
lthumb 16.107500 79.964500
rradius 38.956600
lwrist -18.210699
rhand -33.001701 -4.512420
rhumerus -44.151600 -1.404150 -82.683800
lowerneck -7.614880 -3.004250 0.388305
lhand -9.871350 50.613899
ltibia 66.474197
head 5.256720 -1.899420 -0.215326
rwrist 3.874010
lfingers 7.125020
rtoes 11.136100
lowerback 3.320500 -0.435061 1.451800
rfingers 7.125020
lclavicle 0.000000 -0.000000
upperneck 13.308400 -4.071450 0.379406
rfemur -39.374802 -24.633801 35.824799
thorax -5.418140 -0.244346 -0.113762
rclavicle 0.000000 -0.000000
rtibia 54.043201
lfoot 7.046010 -4.488190
lhumerus -46.754200 3.173400 72.452904
rthumb -6.215820 -34.401199
root -10.284600 18.067301 13.943900 200.201004 82.895302 198.692001
ltoes -7.683580
lfemur -4.579490 1.318890 -1.686190
34
upperback -3.151480 1.638250 0.551558
rfoot -29.797899 -15.191900
lradius 28.061800
lthumb -6.920840 28.631701
rradius 50.990299
lwrist -6.067320
rhand -9.327190 -24.802299
rhumerus -41.236599 4.988950 -85.954597
lowerneck -5.569600 8.624950 10.792300
lhand -33.731998 -1.235180
ltibia 47.059399
head 5.836150 5.777960 -2.062520
rwrist -7.698770
lfingers 7.125020
rtoes 1.466740
lowerback 4.418570 1.032880 3.081400
rfingers 7.125020
lclavicle 0.000000 -0.000000
upperneck 13.553300 11.147300 -3.673890
rfemur -25.692900 -0.577817 29.981300
thorax -5.684220 0.705563 -1.305920
rclavicle 0.000000 -0.000000
rtibia 59.068199
lfoot -12.927100 17.158199
lhumerus -47.141399 -4.613760 77.239799
rthumb 16.631500 -54.109699
root -7.278710 17.826000 14.218000 360.910004 51.410301 359.798004
ltoes -0.929581
lfemur -24.010500 -7.360980 2.668790
35
upperback -2.713970 0.907414 0.328211
rfoot -28.975700 2.807060
lradius 20.212700
lthumb -7.805170 45.833401
rradius 42.594601
lwrist -17.494600
rhand -33.508598 -22.372499
rhumerus -33.271198 -2.992810 -69.492996
lowerneck -5.023630 -2.163060 -0.163409
lhand -34.648102 15.997500
ltibia 13.791900
head 4.302080 -1.458770 1.856760
rwrist -4.525250
lfingers 7.125020
rtoes -7.148350
lowerback 4.018480 0.648473 0.400780
rfingers 7.125020
lclavicle -0.000000 0.000000
upperneck 11.202900 -3.663740 6.598560
rfemur -33.892200 15.958600 13.728500
thorax -5.060010 0.442111 0.039227
rclavicle -0.000000 0.000000
rtibia 64.177299
lfoot -13.195400 -0.596660
lhumerus -48.448502 5.772600 57.982899
rthumb -6.705240 307.753998
root -4.012180 17.886400 14.279800 367.964996 -3.471380 362.769012
ltoes -29.587000
lfemur -6.500940 -23.289700 6.380970
36
upperback -2.765850 -2.143420 1.250920
rfoot -25.317101 -10.456200
lradius 23.868601
lthumb 7.727520 53.848598
rradius 40.257099
lwrist -21.935600
rhand -38.874500 -2.026900
rhumerus -28.844999 -15.810100 -50.605301
lowerneck -1.767180 -12.981600 -7.436010
lhand -18.562401 24.009800
ltibia 19.223000
head 4.527110 -8.813810 2.736960
rwrist -3.769360
lfingers 7.125020
rtoes -19.427601
lowerback 2.452280 -1.462980 -5.066980
rfingers 7.125020
lclavicle 0.000000 -0.000000
upperneck 9.331290 -17.992901 8.470470
rfemur -57.166901 -20.863701 21.268801
thorax -4.008930 -0.899659 4.263290
rclavicle 0.000000 -0.000000
rtibia 65.833504
lfoot -27.169701 15.295200
lhumerus -48.138100 5.169370 40.415798
rthumb -11.882600 328.329987
root -1.917180 17.983101 14.610800 373.924988 -40.099899 363.113007
ltoes -17.687500
lfemur -1.367180 -3.041030 -11.011300
37
upperback -2.969040 -3.274940 2.623080
rfoot -20.406900 -31.532000
lradius 32.754601
lthumb 6.150170 59.660000
rradius 27.453501
lwrist -9.285930
rhand -37.034100 -8.469800
rhumerus -40.466900 -14.214400 -41.904800
lowerneck -2.867400 -14.863400 -0.443005
lhand -20.196400 29.769300
ltibia 21.392599
head 2.777120 -9.906300 -0.950450
rwrist 1.677160
lfingers 7.125020
rtoes 3.105500
lowerback 0.600300 -2.423240 -3.304780
rfingers 7.125020
lclavicle -0.000000 -0.000000
upperneck 7.432740 -19.823799 -1.223810
rfemur -58.934299 -30.475500 34.193600
thorax -3.060250 -1.527840 4.663570
rclavicle -0.000000 -0.000000
rtibia 59.646301
lfoot -25.551600 24.097900
lhumerus -39.980499 4.708760 39.802101
rthumb -10.107500 321.792999
root -2.979440 17.969101 15.205200 377.934998 -63.469700 357.289001
ltoes -27.667200
lfemur 7.752460 0.384147 -15.298800
